<?xml version="1.0" encoding="UTF-8"?>
<svg id="_Слой_1" data-name="Слой 1" xmlns="http://www.w3.org/2000/svg" xmlns:xlink="http://www.w3.org/1999/xlink" viewBox="0 0 104 31.54">
  <defs>
    <style>
      .cls-1 {
        fill: url(#_Безымянный_градиент);
      }

      .cls-2, .cls-3 {
        isolation: isolate;
      }

      .cls-4 {
        fill: #010101;
      }

      .cls-4, .cls-3 {
        font-family: Verdana, Verdana;
        font-size: 11px;
      }

      .cls-5 {
        fill: url(#_Безымянный_градиент_2);
      }

      .cls-3 {
        fill: #fff;
      }

      .cls-6 {
        fill: #959da5;
        fill-rule: evenodd;
      }
    </style>
    <linearGradient id="_Безымянный_градиент" data-name="Безымянный градиент" x1="-889.7" y1="524.55" x2="-889.7" y2="523.55" gradientTransform="translate(48071 10491) scale(54 -20)" gradientUnits="userSpaceOnUse">
      <stop offset="0" stop-color="#444d56"/>
      <stop offset="1" stop-color="#24292e"/>
    </linearGradient>
    <linearGradient id="_Безымянный_градиент_2" data-name="Безымянный градиент 2" x1="-888.36" y1="524.55" x2="-888.36" y2="523.55" gradientTransform="translate(44497 10491) scale(50 -20)" gradientUnits="userSpaceOnUse">
      <stop offset="0" stop-color="#34d058"/>
      <stop offset="1" stop-color="#28a745"/>
    </linearGradient>
  </defs>
  <g>
    <path id="workflow-bg" class="cls-1" d="m0,3C0,1.34,1.36,0,3.03,0h50.97v20H3.03c-1.67,0-3.03-1.34-3.03-3V3Z"/>
    <g class="cls-2">
      <g class="cls-2">
        <text class="cls-4" transform="translate(22.2 15)"><tspan x="0" y="0">Rbxl</tspan></text>
      </g>
    </g>
    <g class="cls-2">
      <text class="cls-3" transform="translate(22.2 14)"><tspan x="0" y="0">Rbxl</tspan></text>
    </g>
  </g>
  <g>
    <path id="state-bg" class="cls-5" d="m54,0h46.94c1.69,0,3.06,1.34,3.06,3v14c0,1.66-1.37,3-3.06,3h-46.94V0Z"/>
    <g class="cls-2">
      <g class="cls-2">
        <text class="cls-4" transform="translate(58 15)"><tspan x="0" y="0">passing</tspan></text>
      </g>
    </g>
    <g class="cls-2">
      <text class="cls-3" transform="translate(58 14)"><tspan x="0" y="0">passing</tspan></text>
    </g>
  </g>
  <path class="cls-6" d="m11,3c-3.87,0-7,3.13-7,7,0,3.01,1.93,5.69,4.79,6.64.35.06.48-.15.48-.33,0-.17-.01-.72-.01-1.3-1.76.32-2.21-.43-2.35-.82-.08-.2-.42-.82-.72-.99-.24-.13-.6-.45-.01-.46.55,0,.95.51,1.08.72.63,1.06,1.64.76,2.04.58.06-.45.24-.76.45-.94-1.56-.18-3.18-.78-3.18-3.46,0-.76.27-1.39.72-1.88-.07-.18-.32-.89.07-1.86,0,0,.59-.18,1.92.72.57-.16,1.16-.24,1.75-.24.59,0,1.18.08,1.75.24,1.34-.91,1.93-.72,1.93-.72.39.96.14,1.68.07,1.86.45.49.72,1.11.72,1.88,0,2.69-1.64,3.28-3.19,3.46.25.22.47.64.47,1.3,0,.94,0,1.69,0,1.92,0,.18.13.4.48.33,2.85-.96,4.77-3.63,4.77-6.64,0-3.87-3.13-7-7-7Z"/>
</svg>